<?xml version="1.0" encoding="iso-8859-1"?>
<!-- Generator: Adobe Illustrator 19.0.0, SVG Export Plug-In . SVG Version: 6.00 Build 0)  -->
<svg version="1.1" id="Layer_1" xmlns="http://www.w3.org/2000/svg" xmlns:xlink="http://www.w3.org/1999/xlink" x="0px" y="0px"
	 viewBox="0 0 492.308 492.308" style="enable-background:new 0 0 492.308 492.308;" xml:space="preserve">
<g>
	<g>
		<path d="M358.188,85.644V46.269h-56.74C296.784,20.005,273.784,0,246.197,0c-27.577,0-50.577,20.005-55.24,46.269h-56.75v39.375
			H40.082v406.663h412.144V85.644H358.188z M153.899,85.644V65.962h55.885v-9.846c0-20.082,16.337-36.423,36.413-36.423
			c20.087,0,36.423,16.341,36.423,36.423v9.846h55.875v19.683v40.74H153.899V85.644z M432.534,472.615H59.774V105.337h74.433v40.74
			h223.981v-40.74h74.346V472.615z"/>
	</g>
</g>
<g>
	<g>
		<polygon points="335.639,237.74 321.716,223.817 246.154,299.38 170.591,223.817 156.668,237.74 232.231,313.303 156.668,388.865 
			170.591,402.788 246.154,327.226 321.716,402.788 335.639,388.865 260.077,313.303 		"/>
	</g>
</g>
<g>
</g>
<g>
</g>
<g>
</g>
<g>
</g>
<g>
</g>
<g>
</g>
<g>
</g>
<g>
</g>
<g>
</g>
<g>
</g>
<g>
</g>
<g>
</g>
<g>
</g>
<g>
</g>
<g>
</g>
</svg>
