<?xml version="1.0" encoding="iso-8859-1"?>
<!-- Generator: Adobe Illustrator 19.0.0, SVG Export Plug-In . SVG Version: 6.00 Build 0)  -->
<svg version="1.1" id="Layer_1" xmlns="http://www.w3.org/2000/svg" xmlns:xlink="http://www.w3.org/1999/xlink" x="0px" y="0px"
	 viewBox="0 0 492.308 492.308" style="enable-background:new 0 0 492.308 492.308;" xml:space="preserve">
<g>
	<g>
		<polygon points="348.111,239.192 209.851,377.452 144.207,311.798 130.284,325.721 209.851,405.298 362.034,253.115 		"/>
	</g>
</g>
<g>
	<g>
		<path d="M358.188,85.644V46.269h-56.74C296.784,20.01,273.784,0,246.197,0c-27.577,0-50.577,20.01-55.24,46.269h-56.75v39.375
			H53.476v406.663h385.356V85.644H358.188z M153.899,85.644V65.962h55.885v-9.846c0-20.087,16.337-36.423,36.413-36.423
			c20.087,0,36.423,16.337,36.423,36.423v9.846h55.875v19.683v40.74H153.899V85.644z M419.139,472.615H73.168V105.337h61.039v40.74
			h223.981v-40.74h60.952V472.615z"/>
	</g>
</g>
<g>
</g>
<g>
</g>
<g>
</g>
<g>
</g>
<g>
</g>
<g>
</g>
<g>
</g>
<g>
</g>
<g>
</g>
<g>
</g>
<g>
</g>
<g>
</g>
<g>
</g>
<g>
</g>
<g>
</g>
</svg>
